<?xml version="1.0" encoding="UTF-8" standalone="no"?>
<!-- Created with Inkscape (http://www.inkscape.org/) -->

<svg
   xmlns:dc="http://purl.org/dc/elements/1.1/"
   xmlns:cc="http://creativecommons.org/ns#"
   xmlns:rdf="http://www.w3.org/1999/02/22-rdf-syntax-ns#"
   xmlns:svg="http://www.w3.org/2000/svg"
   xmlns="http://www.w3.org/2000/svg"
   xmlns:sodipodi="http://sodipodi.sourceforge.net/DTD/sodipodi-0.dtd"
   xmlns:inkscape="http://www.inkscape.org/namespaces/inkscape"
   width="297.95306"
   height="269.88501"
   viewBox="0 0 297.95307 269.88501"
   id="svg2"
   version="1.1"
   inkscape:version="0.92.5 (2060ec1f9f, 2020-04-08)"
   sodipodi:docname="MX-Wkbench-newicon2.svg">
  <defs
     id="defs4" />
  <sodipodi:namedview
     id="base"
     pagecolor="#ffffff"
     bordercolor="#666666"
     borderopacity="1.0"
     inkscape:pageopacity="0.0"
     inkscape:pageshadow="2"
     inkscape:zoom="2.4788335"
     inkscape:cx="66.074633"
     inkscape:cy="134.9425"
     inkscape:document-units="px"
     inkscape:current-layer="g495"
     showgrid="false"
     inkscape:window-width="1874"
     inkscape:window-height="1052"
     inkscape:window-x="46"
     inkscape:window-y="0"
     inkscape:window-maximized="1"
     units="px"
     borderlayer="true"
     inkscape:showpageshadow="false"
     fit-margin-top="0"
     fit-margin-left="0"
     fit-margin-right="0"
     fit-margin-bottom="0" />
  <metadata
     id="metadata7">
    <rdf:RDF>
      <cc:Work
         rdf:about="">
        <dc:format>image/svg+xml</dc:format>
        <dc:type
           rdf:resource="http://purl.org/dc/dcmitype/StillImage" />
        <dc:title />
      </cc:Work>
    </rdf:RDF>
  </metadata>
  <g
     inkscape:label="Layer 1"
     inkscape:groupmode="layer"
     id="layer1"
     transform="translate(-1.0234811,-781.41972)">
    <g
       id="g4253"
       transform="matrix(1.2036871,0,0,1.2036871,-30.553059,-169.79951)">
      <rect
         ry="17.040359"
         y="790.25458"
         x="26.233185"
         height="224.21524"
         width="247.53363"
         id="rect4234"
         style="color:#000000;clip-rule:nonzero;display:inline;overflow:visible;visibility:visible;opacity:1;isolation:auto;mix-blend-mode:normal;color-interpolation:sRGB;color-interpolation-filters:linearRGB;solid-color:#000000;solid-opacity:1;fill:#ffffff;fill-opacity:1;fill-rule:nonzero;stroke:#ffffff;stroke-width:0;stroke-linecap:round;stroke-linejoin:round;stroke-miterlimit:4;stroke-dasharray:none;stroke-dashoffset:0;stroke-opacity:1;color-rendering:auto;image-rendering:auto;shape-rendering:auto;text-rendering:auto;enable-background:accumulate" />
      <rect
         ry="11.522169"
         y="797.2345"
         x="33.443947"
         height="209.35854"
         width="233.11211"
         id="rect4234-3"
         style="color:#000000;clip-rule:nonzero;display:inline;overflow:visible;visibility:visible;opacity:1;isolation:auto;mix-blend-mode:normal;color-interpolation:sRGB;color-interpolation-filters:linearRGB;solid-color:#000000;solid-opacity:1;fill:#000000;fill-opacity:1;fill-rule:nonzero;stroke:#ffffff;stroke-width:0;stroke-linecap:round;stroke-linejoin:round;stroke-miterlimit:4;stroke-dasharray:none;stroke-dashoffset:0;stroke-opacity:1;color-rendering:auto;image-rendering:auto;shape-rendering:auto;text-rendering:auto;enable-background:accumulate" />
      <path
         inkscape:connector-curvature="0"
         id="path3417-0"
         d="m 202.73892,829.9786 -46.22749,53.89687 -46.07728,-53.68684 -18.903811,16.22726 48.567701,56.59143 -7.09341,8.26967 L 120.96628,897.04813 88.09162,935.9 55.210992,974.7458 h 65.755288 41.63644 24.11886 16.97129 41.09614 l -20.54822,-24.683 -20.54792,-24.68298 -5.68888,6.8354 -31.57845,-36.79341 47.73367,-55.64924 z m -52.72678,84.57503 31.82433,37.08753 -7.2735,8.73779 L 153.8406,935.9 142.84663,922.90736 Z"
         style="fill:#ffffff;fill-rule:evenodd;stroke:#000000;stroke-width:0;stroke-linecap:butt;stroke-linejoin:miter;stroke-miterlimit:4;stroke-dasharray:none;stroke-opacity:1" />
    </g>
    <g
       id="g495"
       transform="matrix(3.0186882,0,0,2.9199642,142.99209,-2037.0796)">
      <circle
         id="circle473"
         transform="matrix(1.0913745,0,0,1.0913745,-2.2800104,-93.966042)"
         r="20"
         cy="1028.3621"
         cx="24"
         style="fill:#00ccff;fill-opacity:1" />
      <g
         id="g493"
         style="fill:#0000d4;fill-opacity:1"
         transform="matrix(0.50033594,0,0,-0.50033594,-3576.6296,4750.3728)">
        <path
           id="path475"
           style="fill:#0000d4;fill-opacity:1"
           d="m 7204.375,7459.5542 h -16.25 l 3.625,12.188 h 9 z"
           inkscape:connector-curvature="0" />
        <path
           id="path477"
           style="fill:#0000d4;fill-opacity:1"
           d="m 7188.125,7418.4917 h 16.25 l -3.625,-12.188 h -9 z"
           inkscape:connector-curvature="0" />
        <path
           id="path479"
           style="fill:#0000d4;fill-opacity:1"
           d="m 7216.7813,7431.1807 v 16.25 l 12.188,-3.625 v -9 z"
           inkscape:connector-curvature="0" />
        <path
           id="path481"
           style="fill:#0000d4;fill-opacity:1"
           d="m 7175.7188,7447.4307 v -16.25 l -12.188,3.625 v 9 z"
           inkscape:connector-curvature="0" />
        <path
           id="path483"
           style="fill:#0000d4;fill-opacity:1"
           d="m 7187.6025,7459.4111 -11.491,-11.491 -6.054,11.181 6.364,6.365 z"
           inkscape:connector-curvature="0" />
        <path
           id="path485"
           style="fill:#0000d4;fill-opacity:1"
           d="m 7205.1475,7418.8848 11.49,11.491 6.055,-11.181 -6.363,-6.365 z"
           inkscape:connector-curvature="0" />
        <path
           id="path487"
           style="fill:#0000d4;fill-opacity:1"
           d="m 7216.3877,7447.9204 -11.49,11.491 11.181,6.054 6.364,-6.364 z"
           inkscape:connector-curvature="0" />
        <path
           id="path489"
           style="fill:#0000d4;fill-opacity:1"
           d="m 7175.8618,7430.3755 11.491,-11.491 -11.181,-6.054 -6.364,6.364 z"
           inkscape:connector-curvature="0" />
        <path
           id="path491"
           style="fill:#0000d4;fill-opacity:1"
           d="m 7196.5156,7427.0972 c -6.75,0 -12.225,5.474 -12.225,12.224 0,6.751 5.475,12.225 12.225,12.225 6.751,0 12.223,-5.474 12.223,-12.225 0,-6.75 -5.472,-12.224 -12.223,-12.224 m -0.266,37.47 c -14.088,0 -25.512,-11.423 -25.512,-25.512 0,-14.088 11.424,-25.512 25.512,-25.512 14.087,0 25.512,11.424 25.512,25.512 0,14.089 -11.425,25.512 -25.512,25.512"
           inkscape:connector-curvature="0" />
      </g>
    </g>
  </g>
</svg>
